<?xml version="1.0" standalone="no"?>
<!DOCTYPE svg PUBLIC "-//W3C//DTD SVG 20010904//EN"
 "http://www.w3.org/TR/2001/REC-SVG-20010904/DTD/svg10.dtd">
<svg version="1.0" xmlns="http://www.w3.org/2000/svg"
 width="72.000000pt" height="72.000000pt" viewBox="0 0 72.000000 72.000000"
 preserveAspectRatio="xMidYMid meet">

<g transform="translate(0.000000,72.000000) scale(0.100000,-0.100000)"
fill="#000000" stroke="none">
<path d="M34 696 l-29 -24 -3 -305 -3 -305 25 -28 24 -29 305 -3 305 -3 28 25
29 24 3 305 3 305 -25 28 -24 29 -305 3 -305 3 -28 -25z m191 -242 c44 -21 73
-54 81 -91 5 -26 1 -37 -27 -67 -44 -46 -99 -70 -123 -53 -23 17 -11 44 23 52
33 7 71 39 71 60 0 15 -46 55 -64 55 -24 0 -47 25 -40 43 8 21 36 22 79 1z
m353 -7 c3 -12 -9 -22 -40 -36 -94 -40 -89 -83 15 -121 31 -11 35 -35 9 -49
-22 -12 -87 15 -119 50 -34 38 -37 70 -11 108 41 61 138 93 146 48z m-185 -79
c22 -34 -36 -66 -62 -34 -9 11 -10 20 -1 36 13 25 47 24 63 -2z"/>
</g>
</svg>
